<?xml version="1.0" standalone="no"?><!DOCTYPE svg PUBLIC "-//W3C//DTD SVG 1.1//EN" "http://www.w3.org/Graphics/SVG/1.1/DTD/svg11.dtd"><svg t="1594362264962" class="icon" viewBox="0 0 1024 1024" version="1.1" xmlns="http://www.w3.org/2000/svg" p-id="2337" xmlns:xlink="http://www.w3.org/1999/xlink" width="200" height="200"><defs><style type="text/css"></style></defs><path d="M744.704 743.765333A327.509333 327.509333 0 1 0 281.685333 280.405333a327.509333 327.509333 0 0 0 463.018667 463.36z m39.296 39.253334A384 384 0 1 1 240 240.938667a384 384 0 0 1 544 542.165333z m-110.250667-399.317334a28.458667 28.458667 0 1 1 39.765334 39.765334l-220.458667 220.458666a32.981333 32.981333 0 0 1-45.184 0l-125.568-124.714666a28.458667 28.458667 0 1 1 39.765333-39.722667l105.685334 107.946667 205.994666-203.733334z" fill="#cdcdcd" p-id="2338"></path></svg>