<?xml version="1.0" standalone="no"?><!DOCTYPE svg PUBLIC "-//W3C//DTD SVG 1.1//EN" "http://www.w3.org/Graphics/SVG/1.1/DTD/svg11.dtd"><svg t="1594218809796" class="icon" viewBox="0 0 1024 1024" version="1.1" xmlns="http://www.w3.org/2000/svg" p-id="2370" xmlns:xlink="http://www.w3.org/1999/xlink" width="200" height="200"><defs><style type="text/css"></style></defs><path d="M152.576516 353.144969 101.660339 431.755417l93.919704 58.484798c0 0 62.441122 32.166639 32.510667 92.543591C200.396439 639.892491 63.989249 764.94675 63.989249 764.94675l122.130018 76.718293c84.630942-184.571141 78.954477-159.973123 100.112212-226.370569 21.845792-67.429531 26.662187-119.205779-10.320847-156.876869C228.434739 410.425668 223.102301 405.953301 152.576516 353.144969z" p-id="2371" fill="#ffffff"></path><path d="M219.317991 323.558542c44.379641 0 80.33059-32.338653 80.33059-72.245926 0-40.251302-35.950949-72.589955-80.33059-72.589955-44.723669 0-80.502604 32.510667-80.502604 72.589955C138.987401 291.047875 174.594322 323.558542 219.317991 323.558542z" p-id="2372" fill="#ffffff"></path><path d="M944.873509 332.503276c0 0-26.662187-207.793046-478.199227-79.126491 19.437594-33.88678 28.554342-55.732572 28.554342-55.732572l-112.669242-31.994625c0 0-45.583739 149.652276-126.774399 219.317991 0 0 78.782463 45.755753 77.922392 44.379641 22.533848-22.705863 42.831514-45.755753 60.032925-68.117588 18.061482-8.084663 35.434907-15.48127 52.29229-22.361834-20.985721 37.843104-54.528473 94.607761-88.243239 130.386696l47.475895 41.971443c0 0 32.510667-31.478582 67.77356-69.149672l40.251302 0 0 69.837729-157.220897 0L356.069209 567.646565l157.220897 0 0 133.654964-6.020494-0.172014c-17.373425-0.860071-44.207626-3.78431-54.872501-20.641693-12.729044-20.641693-3.268268-57.968755-2.752226-81.19066l-108.540904 0-3.956325 2.236183c0 0-39.907274 179.410717 114.733412 175.454393 144.491853 3.956325 227.402654-40.767344 267.309928-71.55787l15.825298 59.516882 89.103309-37.67109-60.376953-148.620192L691.496724 601.533345l13.417101 50.744163c-18.233496 14.105157-39.73526 24.426004-62.613136 32.166639L642.300689 567.646565l153.264572 0 0-55.904586-153.264572 0 0-69.837729 153.780615 0 0-55.732572-273.502436 0c19.781623-24.25399 35.090879-46.44381 39.219217-60.376953l-47.819923-13.073072c204.696792-73.966068 318.742147-61.237023 317.882076 59.86091L831.860239 691.496724c0 0 12.040988 109.400974-112.497228 101.660339l-67.429531-14.621199-15.653284 64.505291c0 0 290.875861 83.942886 314.613808-141.395599C974.459936 476.307072 944.873509 332.503276 944.873509 332.503276z" p-id="2373" fill="#ffffff"></path></svg>