<?xml version="1.0" standalone="no"?><!DOCTYPE svg PUBLIC "-//W3C//DTD SVG 1.1//EN" "http://www.w3.org/Graphics/SVG/1.1/DTD/svg11.dtd"><svg t="1593418011921" class="icon" viewBox="0 0 1077 1024" version="1.1" xmlns="http://www.w3.org/2000/svg" p-id="4028" xmlns:xlink="http://www.w3.org/1999/xlink" width="210.3515625" height="200"><defs><style type="text/css"></style></defs><path d="M465.454545 432.207792H151.073247c-12.766753 0-29.124156 2.393766-41.624935-1.595844-23.13974-7.58026-23.006753-28.991169-23.006754-48.673247V204.667013 53.327792C79.792208 59.844156 73.142857 66.493506 66.493506 73.142857h314.381299c12.766753 0 29.124156-2.393766 41.624935 1.595844 23.13974 7.58026 23.006753 28.991169 23.006754 48.673247v328.610909c0 25.666494 39.896104 25.666494 39.896103 0V129.13039c0-21.011948 0.930909-41.491948-10.372987-60.376104-15.958442-26.73039-43.61974-35.640519-72.876883-35.64052H66.626494C55.721558 33.246753 46.545455 42.422857 46.545455 53.194805v322.892468c0 21.011948-0.930909 41.491948 10.372987 60.376104 15.958442 26.73039 43.61974 35.640519 72.876883 35.640519h335.526233c25.799481 0 25.799481-39.896104 0.132987-39.896104zM957.506494 432.207792H611.74026l19.948052 19.948052V137.774545c0-12.766753-2.393766-29.124156 1.595844-41.624935 7.58026-23.13974 28.991169-23.006753 48.673247-23.006753h328.610909L990.62026 53.194805v323.69039c0.132987 24.46961 0 53.85974-33.113766 55.322597-25.533506 1.063896-25.666494 40.96 0 39.896104 43.486753-1.861818 72.743896-34.975584 73.142857-77.664415 0.132987-22.208831 0-44.417662 0-66.626494V109.714286 53.194805c0-10.771948-9.176104-19.948052-19.948052-19.948052H687.808831c-21.011948 0-41.491948-0.930909-60.376104 10.372987-26.73039 15.958442-35.640519 43.61974-35.640519 72.876883v335.526234c0 10.771948 9.176104 19.948052 19.948052 19.948052h345.766234c25.666494 0.132987 25.666494-39.763117 0-39.763117z" fill="#d81e06" p-id="4029"></path><path d="M952.585974 221.689351v111.177143c0 4.255584 0.132987 8.644156 0 12.89974-0.398961 17.155325-9.043117 32.980779-23.937662 41.624935-16.623377 9.708052-39.231169 6.516364-57.716364 6.516363h-59.578182c-6.383377 0-6.383377 9.974026 0 9.974026h54.524676c18.352208 0 40.827013 3.058701 58.514285-3.457662 25.001558-9.176104 38.30026-32.581818 38.30026-58.514286V279.272727v-57.583376c-0.132987-6.383377-10.107013-6.383377-10.107013 0zM412.25974 950.857143H66.493506L86.441558 970.805195V656.423896c0-12.766753-2.393766-29.124156 1.595845-41.624935 7.58026-23.13974 28.991169-23.006753 48.673246-23.006753h328.610909l-19.948052-19.948052v323.690389c0.132987 24.46961 0 53.85974-33.113766 55.322598-25.533506 1.063896-25.666494 40.96 0 39.896104 43.486753-1.861818 72.743896-34.975584 73.142857-77.664416 0.132987-22.208831 0-44.417662 0-66.626493v-218.098702V571.844156c0-10.771948-9.176104-19.948052-19.948052-19.948052H142.562078c-21.011948 0-41.491948-0.930909-60.376104 10.372987-26.73039 15.958442-35.640519 43.61974-35.640519 72.876883v335.526234c0 10.771948 9.176104 19.948052 19.948051 19.948052h345.766234c25.666494 0.132987 25.666494-39.763117 0-39.763117zM1010.701299 950.857143H696.32c-12.766753 0-29.124156 2.393766-41.624935-1.595844-23.13974-7.58026-23.006753-28.991169-23.006753-48.673247V723.316364 571.977143l-19.948052 19.948052h314.381298c12.766753 0 29.124156-2.393766 41.624936 1.595844 23.13974 7.58026 23.006753 28.991169 23.006753 48.673247V970.805195c0 25.666494 39.896104 25.666494 39.896104 0V647.912727c0-21.011948 0.930909-41.491948-10.372987-60.376104-15.958442-26.73039-43.61974-35.640519-72.876883-35.640519H611.873247c-10.771948 0-19.948052 9.176104-19.948052 19.948052v322.892467c0 21.011948-0.930909 41.491948 10.372987 60.376104 15.958442 26.73039 43.61974 35.640519 72.876883 35.64052H1010.701299c25.666494 0 25.666494-39.896104 0-39.896104z" fill="#d81e06" p-id="4030"></path><path d="M784.623377 398.961039m-6.649351 0a6.649351 6.649351 0 1 0 13.298701 0 6.649351 6.649351 0 1 0-13.298701 0Z" fill="#d81e06" p-id="4031"></path></svg>