<?xml version="1.0" standalone="no"?><!DOCTYPE svg PUBLIC "-//W3C//DTD SVG 1.1//EN" "http://www.w3.org/Graphics/SVG/1.1/DTD/svg11.dtd"><svg t="1593417892500" class="icon" viewBox="0 0 1024 1024" version="1.1" xmlns="http://www.w3.org/2000/svg" p-id="3760" xmlns:xlink="http://www.w3.org/1999/xlink" width="200" height="200"><defs><style type="text/css"></style></defs><path d="M334.336 606.592L184.789333 170.666667H85.333333a42.666667 42.666667 0 1 1 0-85.333334h129.941334a42.666667 42.666667 0 0 1 40.362666 28.821334l160.213334 467.029333a42.666667 42.666667 0 0 1 1.429333 5.290667c3.2 15.552 20.650667 29.909333 36.309333 29.994666l346.88 2.197334c15.36 0.085333 32.597333-13.973333 35.690667-29.205334l0.533333-2.218666 60.672-233.301334a42.666667 42.666667 0 0 1 82.602667 21.482667l-60.437333 232.32c-11.754667 54.506667-63.829333 96.576-119.573334 96.256l-346.88-2.197333c-54.997333-0.32-106.218667-41.6-118.741333-95.210667zM405.333333 938.666667a85.333333 85.333333 0 1 1 0-170.666667 85.333333 85.333333 0 0 1 0 170.666667z m426.666667 0a85.333333 85.333333 0 1 1 0-170.666667 85.333333 85.333333 0 0 1 0 170.666667z" fill="#d81e06" p-id="3761"></path></svg>